<?xml version="1.0" standalone="no"?>
<svg xmlns:xlink="http://www.w3.org/1999/xlink" id="wave" style="transform:rotate(180deg); transition: 0.3s" viewBox="0 0 1440 490" version="1.1" xmlns="http://www.w3.org/2000/svg"><defs><linearGradient id="sw-gradient-0" x1="0" x2="0" y1="1" y2="0"><stop stop-color="rgba(255, 255, 255, 0.468)" offset="0%"/><stop stop-color="rgba(11, 147.55, 255, 0.03)" offset="100%"/></linearGradient></defs><path style="transform:translate(0, 0px); opacity:1" fill="url(#sw-gradient-0)" d="M0,245L120,220.5C240,196,480,147,720,163.3C960,180,1200,261,1440,245C1680,229,1920,114,2160,73.5C2400,33,2640,65,2880,138.8C3120,212,3360,327,3600,351.2C3840,376,4080,310,4320,277.7C4560,245,4800,245,5040,269.5C5280,294,5520,343,5760,359.3C6000,376,6240,359,6480,334.8C6720,310,6960,278,7200,269.5C7440,261,7680,278,7920,253.2C8160,229,8400,163,8640,122.5C8880,82,9120,65,9360,89.8C9600,114,9840,180,10080,187.8C10320,196,10560,147,10800,122.5C11040,98,11280,98,11520,106.2C11760,114,12000,131,12240,163.3C12480,196,12720,245,12960,236.8C13200,229,13440,163,13680,163.3C13920,163,14160,229,14400,236.8C14640,245,14880,196,15120,187.8C15360,180,15600,212,15840,236.8C16080,261,16320,278,16560,236.8C16800,196,17040,98,17160,49L17280,0L17280,490L17160,490C17040,490,16800,490,16560,490C16320,490,16080,490,15840,490C15600,490,15360,490,15120,490C14880,490,14640,490,14400,490C14160,490,13920,490,13680,490C13440,490,13200,490,12960,490C12720,490,12480,490,12240,490C12000,490,11760,490,11520,490C11280,490,11040,490,10800,490C10560,490,10320,490,10080,490C9840,490,9600,490,9360,490C9120,490,8880,490,8640,490C8400,490,8160,490,7920,490C7680,490,7440,490,7200,490C6960,490,6720,490,6480,490C6240,490,6000,490,5760,490C5520,490,5280,490,5040,490C4800,490,4560,490,4320,490C4080,490,3840,490,3600,490C3360,490,3120,490,2880,490C2640,490,2400,490,2160,490C1920,490,1680,490,1440,490C1200,490,960,490,720,490C480,490,240,490,120,490L0,490Z"/></svg>